<?xml version="1.0" encoding="UTF-8" standalone="no"?><!-- Generator: Gravit.io --><svg xmlns="http://www.w3.org/2000/svg" xmlns:xlink="http://www.w3.org/1999/xlink" style="isolation:isolate" viewBox="0 0 186.7 24.8" width="186.7pt" height="24.8pt"><defs><clipPath id="_clipPath_16ePClau0yUA3X3yJt5YfrgTFOBLrbIg"><rect width="186.7" height="24.8"/></clipPath></defs><g clip-path="url(#_clipPath_16ePClau0yUA3X3yJt5YfrgTFOBLrbIg)"><rect width="186.7" height="24.8" style="fill:rgb(72,65,65)" fill-opacity="0"/><g><g><linearGradient id="_lgradient_1" x1="0" y1="0.3973501451807051" x2="0.9140412532695253" y2="0.38241751131382" gradientTransform="matrix(18.602,0,0,24.753,23.157,-0.994)" gradientUnits="userSpaceOnUse"><stop offset="0%" stop-opacity="1" style="stop-color:rgb(253,186,43)"/><stop offset="100%" stop-opacity="1" style="stop-color:rgb(253,215,48)"/></linearGradient><path d=" M 23.157 23.167 C 23.716 22.729 24.249 22.257 24.753 21.753 C 26.394 20.112 27.697 18.163 28.585 16.018 C 28.692 15.759 28.793 15.497 28.888 15.234 C 29.14 15.165 29.387 15.08 29.629 14.98 C 30.38 14.669 31.063 14.213 31.638 13.638 C 32.213 13.063 32.669 12.38 32.98 11.629 C 33.291 10.878 33.451 10.072 33.451 9.259 C 33.451 8.446 33.291 7.641 32.98 6.889 C 32.669 6.138 32.213 5.455 31.638 4.88 L 37.512 -0.994 C 38.859 0.353 39.927 1.951 40.655 3.71 C 41.384 5.469 41.759 7.355 41.759 9.259 C 41.759 11.163 41.384 13.049 40.655 14.808 C 39.927 16.567 38.859 18.166 37.512 19.512 C 36.166 20.859 34.567 21.927 32.808 22.655 C 31.049 23.384 29.163 23.759 27.259 23.759 C 25.868 23.759 24.487 23.559 23.157 23.167 Z " fill-rule="evenodd" fill="url(#_lgradient_1)"/><radialGradient id="_rgradient_1" fx="0.4168520797182129" fy="1.2399982574082806" cx="0.4168520797182129" cy="1.2399982574082806" r="1" gradientTransform="matrix(24.753,0,0,24.753,2,-1)" gradientUnits="userSpaceOnUse"><stop offset="0%" stop-opacity="1" style="stop-color:rgb(250,41,70)"/><stop offset="100%" stop-opacity="1" style="stop-color:rgb(204,28,88)"/></radialGradient><path d=" M 2 19.506 C 3.347 20.853 4.945 21.921 6.704 22.649 C 8.463 23.378 10.349 23.753 12.253 23.753 C 14.157 23.753 16.043 23.378 17.802 22.649 C 19.561 21.921 21.16 20.853 22.506 19.506 C 23.853 18.16 24.921 16.561 25.649 14.802 C 26.378 13.043 26.753 11.157 26.753 9.253 C 26.753 7.349 26.378 5.463 25.649 3.704 C 24.921 1.945 23.853 0.346 22.506 -1 L 16.632 4.874 C 17.207 5.449 17.663 6.132 17.974 6.883 C 18.286 7.635 18.446 8.44 18.446 9.253 C 18.446 10.066 18.286 10.872 17.974 11.623 C 17.663 12.374 17.207 13.057 16.632 13.632 C 16.057 14.207 15.374 14.663 14.623 14.974 C 13.872 15.285 13.066 15.446 12.253 15.446 C 11.44 15.446 10.635 15.285 9.883 14.974 C 9.132 14.663 8.449 14.207 7.874 13.632 L 2 19.506 Z " fill="url(#_rgradient_1)"/></g><g><text transform="matrix(1,0,0,1,52,19.652)" style="font-family:'Open Sans';font-weight:700;font-size:24px;font-style:normal;fill:#e7244e;stroke:none;">Scot</text><text transform="matrix(1,0,0,1,103.253,19.652)" style="font-family:'Open Sans';font-weight:700;font-size:24px;font-style:normal;fill:#fdc62d;stroke:none;">Pay</text></g></g></g></svg>